<mxfile host="app.diagrams.net" agent="Mozilla/5.0 (Windows NT 10.0; Win64; x64) AppleWebKit/537.36 (KHTML, like Gecko) Chrome/131.0.0.0 Safari/537.36" version="24.9.3">
  <diagram name="Página-1" id="eLMjckZEu1n_llrLZ4Q6">
    <mxGraphModel dx="1956" dy="947" grid="1" gridSize="10" guides="1" tooltips="1" connect="1" arrows="1" fold="1" page="1" pageScale="1" pageWidth="827" pageHeight="1169" math="0" shadow="0">
      <root>
        <mxCell id="0" />
        <mxCell id="1" parent="0" />
        <mxCell id="zFKXXjvQPSU-OLs1OLAP-2" value="" style="shape=umlLifeline;perimeter=lifelinePerimeter;whiteSpace=wrap;html=1;container=1;dropTarget=0;collapsible=0;recursiveResize=0;outlineConnect=0;portConstraint=eastwest;newEdgeStyle={&quot;curved&quot;:0,&quot;rounded&quot;:0};participant=umlActor;" vertex="1" parent="1">
          <mxGeometry x="90" y="50" width="20" height="780" as="geometry" />
        </mxCell>
        <mxCell id="zFKXXjvQPSU-OLs1OLAP-4" value="" style="html=1;points=[[0,0,0,0,5],[0,1,0,0,-5],[1,0,0,0,5],[1,1,0,0,-5]];perimeter=orthogonalPerimeter;outlineConnect=0;targetShapes=umlLifeline;portConstraint=eastwest;newEdgeStyle={&quot;curved&quot;:0,&quot;rounded&quot;:0};" vertex="1" parent="zFKXXjvQPSU-OLs1OLAP-2">
          <mxGeometry x="5" y="110" width="10" height="560" as="geometry" />
        </mxCell>
        <mxCell id="zFKXXjvQPSU-OLs1OLAP-3" value="Cliente" style="text;html=1;align=center;verticalAlign=middle;resizable=0;points=[];autosize=1;strokeColor=none;fillColor=none;" vertex="1" parent="1">
          <mxGeometry x="70" y="18" width="60" height="30" as="geometry" />
        </mxCell>
        <mxCell id="zFKXXjvQPSU-OLs1OLAP-5" value="front" style="shape=umlLifeline;perimeter=lifelinePerimeter;whiteSpace=wrap;html=1;container=1;dropTarget=0;collapsible=0;recursiveResize=0;outlineConnect=0;portConstraint=eastwest;newEdgeStyle={&quot;curved&quot;:0,&quot;rounded&quot;:0};participant=umlBoundary;" vertex="1" parent="1">
          <mxGeometry x="200" y="48" width="50" height="872" as="geometry" />
        </mxCell>
        <mxCell id="zFKXXjvQPSU-OLs1OLAP-9" value="" style="html=1;points=[[0,0,0,0,5],[0,1,0,0,-5],[1,0,0,0,5],[1,1,0,0,-5]];perimeter=orthogonalPerimeter;outlineConnect=0;targetShapes=umlLifeline;portConstraint=eastwest;newEdgeStyle={&quot;curved&quot;:0,&quot;rounded&quot;:0};" vertex="1" parent="zFKXXjvQPSU-OLs1OLAP-5">
          <mxGeometry x="20" y="112" width="10" height="78" as="geometry" />
        </mxCell>
        <mxCell id="zFKXXjvQPSU-OLs1OLAP-35" value="" style="html=1;points=[[0,0,0,0,5],[0,1,0,0,-5],[1,0,0,0,5],[1,1,0,0,-5]];perimeter=orthogonalPerimeter;outlineConnect=0;targetShapes=umlLifeline;portConstraint=eastwest;newEdgeStyle={&quot;curved&quot;:0,&quot;rounded&quot;:0};" vertex="1" parent="zFKXXjvQPSU-OLs1OLAP-5">
          <mxGeometry x="20" y="232" width="10" height="78" as="geometry" />
        </mxCell>
        <mxCell id="zFKXXjvQPSU-OLs1OLAP-53" value="" style="html=1;points=[[0,0,0,0,5],[0,1,0,0,-5],[1,0,0,0,5],[1,1,0,0,-5]];perimeter=orthogonalPerimeter;outlineConnect=0;targetShapes=umlLifeline;portConstraint=eastwest;newEdgeStyle={&quot;curved&quot;:0,&quot;rounded&quot;:0};" vertex="1" parent="zFKXXjvQPSU-OLs1OLAP-5">
          <mxGeometry x="20" y="352" width="10" height="78" as="geometry" />
        </mxCell>
        <mxCell id="zFKXXjvQPSU-OLs1OLAP-71" value="" style="html=1;points=[[0,0,0,0,5],[0,1,0,0,-5],[1,0,0,0,5],[1,1,0,0,-5]];perimeter=orthogonalPerimeter;outlineConnect=0;targetShapes=umlLifeline;portConstraint=eastwest;newEdgeStyle={&quot;curved&quot;:0,&quot;rounded&quot;:0};" vertex="1" parent="zFKXXjvQPSU-OLs1OLAP-5">
          <mxGeometry x="20" y="512" width="10" height="78" as="geometry" />
        </mxCell>
        <mxCell id="zFKXXjvQPSU-OLs1OLAP-90" value="" style="html=1;points=[[0,0,0,0,5],[0,1,0,0,-5],[1,0,0,0,5],[1,1,0,0,-5]];perimeter=orthogonalPerimeter;outlineConnect=0;targetShapes=umlLifeline;portConstraint=eastwest;newEdgeStyle={&quot;curved&quot;:0,&quot;rounded&quot;:0};" vertex="1" parent="zFKXXjvQPSU-OLs1OLAP-5">
          <mxGeometry x="20" y="632" width="10" height="78" as="geometry" />
        </mxCell>
        <mxCell id="zFKXXjvQPSU-OLs1OLAP-103" value="" style="html=1;points=[[0,0,0,0,5],[0,1,0,0,-5],[1,0,0,0,5],[1,1,0,0,-5]];perimeter=orthogonalPerimeter;outlineConnect=0;targetShapes=umlLifeline;portConstraint=eastwest;newEdgeStyle={&quot;curved&quot;:0,&quot;rounded&quot;:0};" vertex="1" parent="zFKXXjvQPSU-OLs1OLAP-5">
          <mxGeometry x="20" y="782" width="10" height="78" as="geometry" />
        </mxCell>
        <mxCell id="zFKXXjvQPSU-OLs1OLAP-104" style="edgeStyle=orthogonalEdgeStyle;rounded=0;orthogonalLoop=1;jettySize=auto;html=1;curved=0;exitX=0;exitY=1;exitDx=0;exitDy=-5;exitPerimeter=0;entryX=0;entryY=0;entryDx=0;entryDy=5;entryPerimeter=0;" edge="1" parent="zFKXXjvQPSU-OLs1OLAP-5" source="zFKXXjvQPSU-OLs1OLAP-90" target="zFKXXjvQPSU-OLs1OLAP-103">
          <mxGeometry relative="1" as="geometry">
            <Array as="points">
              <mxPoint x="-10" y="705" />
              <mxPoint x="-10" y="787" />
            </Array>
          </mxGeometry>
        </mxCell>
        <mxCell id="zFKXXjvQPSU-OLs1OLAP-7" value="&lt;font style=&quot;font-size: 11px;&quot;&gt;control&lt;/font&gt;" style="shape=umlLifeline;perimeter=lifelinePerimeter;whiteSpace=wrap;html=1;container=1;dropTarget=0;collapsible=0;recursiveResize=0;outlineConnect=0;portConstraint=eastwest;newEdgeStyle={&quot;curved&quot;:0,&quot;rounded&quot;:0};participant=umlControl;" vertex="1" parent="1">
          <mxGeometry x="330" y="48" width="40" height="872" as="geometry" />
        </mxCell>
        <mxCell id="zFKXXjvQPSU-OLs1OLAP-10" value="" style="html=1;points=[[0,0,0,0,5],[0,1,0,0,-5],[1,0,0,0,5],[1,1,0,0,-5]];perimeter=orthogonalPerimeter;outlineConnect=0;targetShapes=umlLifeline;portConstraint=eastwest;newEdgeStyle={&quot;curved&quot;:0,&quot;rounded&quot;:0};" vertex="1" parent="zFKXXjvQPSU-OLs1OLAP-7">
          <mxGeometry x="15" y="112" width="10" height="80" as="geometry" />
        </mxCell>
        <mxCell id="zFKXXjvQPSU-OLs1OLAP-39" value="" style="html=1;points=[[0,0,0,0,5],[0,1,0,0,-5],[1,0,0,0,5],[1,1,0,0,-5]];perimeter=orthogonalPerimeter;outlineConnect=0;targetShapes=umlLifeline;portConstraint=eastwest;newEdgeStyle={&quot;curved&quot;:0,&quot;rounded&quot;:0};" vertex="1" parent="zFKXXjvQPSU-OLs1OLAP-7">
          <mxGeometry x="15" y="232" width="10" height="78" as="geometry" />
        </mxCell>
        <mxCell id="zFKXXjvQPSU-OLs1OLAP-69" style="edgeStyle=orthogonalEdgeStyle;rounded=0;orthogonalLoop=1;jettySize=auto;html=1;curved=0;exitX=0;exitY=1;exitDx=0;exitDy=-5;exitPerimeter=0;" edge="1" parent="zFKXXjvQPSU-OLs1OLAP-7" source="zFKXXjvQPSU-OLs1OLAP-56">
          <mxGeometry relative="1" as="geometry">
            <mxPoint x="-100.00000000000011" y="424.8965517241379" as="targetPoint" />
          </mxGeometry>
        </mxCell>
        <mxCell id="zFKXXjvQPSU-OLs1OLAP-56" value="" style="html=1;points=[[0,0,0,0,5],[0,1,0,0,-5],[1,0,0,0,5],[1,1,0,0,-5]];perimeter=orthogonalPerimeter;outlineConnect=0;targetShapes=umlLifeline;portConstraint=eastwest;newEdgeStyle={&quot;curved&quot;:0,&quot;rounded&quot;:0};" vertex="1" parent="zFKXXjvQPSU-OLs1OLAP-7">
          <mxGeometry x="15" y="352" width="10" height="78" as="geometry" />
        </mxCell>
        <mxCell id="zFKXXjvQPSU-OLs1OLAP-74" value="" style="html=1;points=[[0,0,0,0,5],[0,1,0,0,-5],[1,0,0,0,5],[1,1,0,0,-5]];perimeter=orthogonalPerimeter;outlineConnect=0;targetShapes=umlLifeline;portConstraint=eastwest;newEdgeStyle={&quot;curved&quot;:0,&quot;rounded&quot;:0};" vertex="1" parent="zFKXXjvQPSU-OLs1OLAP-7">
          <mxGeometry x="15" y="512" width="10" height="78" as="geometry" />
        </mxCell>
        <mxCell id="zFKXXjvQPSU-OLs1OLAP-93" value="" style="html=1;points=[[0,0,0,0,5],[0,1,0,0,-5],[1,0,0,0,5],[1,1,0,0,-5]];perimeter=orthogonalPerimeter;outlineConnect=0;targetShapes=umlLifeline;portConstraint=eastwest;newEdgeStyle={&quot;curved&quot;:0,&quot;rounded&quot;:0};" vertex="1" parent="zFKXXjvQPSU-OLs1OLAP-7">
          <mxGeometry x="15" y="632" width="10" height="78" as="geometry" />
        </mxCell>
        <mxCell id="zFKXXjvQPSU-OLs1OLAP-105" value="" style="html=1;points=[[0,0,0,0,5],[0,1,0,0,-5],[1,0,0,0,5],[1,1,0,0,-5]];perimeter=orthogonalPerimeter;outlineConnect=0;targetShapes=umlLifeline;portConstraint=eastwest;newEdgeStyle={&quot;curved&quot;:0,&quot;rounded&quot;:0};" vertex="1" parent="zFKXXjvQPSU-OLs1OLAP-7">
          <mxGeometry x="15" y="782" width="10" height="78" as="geometry" />
        </mxCell>
        <mxCell id="zFKXXjvQPSU-OLs1OLAP-8" value="Validação&lt;div&gt;banco&lt;/div&gt;" style="shape=umlLifeline;perimeter=lifelinePerimeter;whiteSpace=wrap;html=1;container=1;dropTarget=0;collapsible=0;recursiveResize=0;outlineConnect=0;portConstraint=eastwest;newEdgeStyle={&quot;curved&quot;:0,&quot;rounded&quot;:0};" vertex="1" parent="1">
          <mxGeometry x="450" y="48" width="100" height="872" as="geometry" />
        </mxCell>
        <mxCell id="zFKXXjvQPSU-OLs1OLAP-11" value="" style="html=1;points=[[0,0,0,0,5],[0,1,0,0,-5],[1,0,0,0,5],[1,1,0,0,-5]];perimeter=orthogonalPerimeter;outlineConnect=0;targetShapes=umlLifeline;portConstraint=eastwest;newEdgeStyle={&quot;curved&quot;:0,&quot;rounded&quot;:0};" vertex="1" parent="zFKXXjvQPSU-OLs1OLAP-8">
          <mxGeometry x="45" y="112" width="10" height="80" as="geometry" />
        </mxCell>
        <mxCell id="zFKXXjvQPSU-OLs1OLAP-96" value="" style="html=1;points=[[0,0,0,0,5],[0,1,0,0,-5],[1,0,0,0,5],[1,1,0,0,-5]];perimeter=orthogonalPerimeter;outlineConnect=0;targetShapes=umlLifeline;portConstraint=eastwest;newEdgeStyle={&quot;curved&quot;:0,&quot;rounded&quot;:0};" vertex="1" parent="zFKXXjvQPSU-OLs1OLAP-8">
          <mxGeometry x="45" y="632" width="10" height="78" as="geometry" />
        </mxCell>
        <mxCell id="zFKXXjvQPSU-OLs1OLAP-109" value="" style="html=1;points=[[0,0,0,0,5],[0,1,0,0,-5],[1,0,0,0,5],[1,1,0,0,-5]];perimeter=orthogonalPerimeter;outlineConnect=0;targetShapes=umlLifeline;portConstraint=eastwest;newEdgeStyle={&quot;curved&quot;:0,&quot;rounded&quot;:0};" vertex="1" parent="zFKXXjvQPSU-OLs1OLAP-8">
          <mxGeometry x="45" y="782" width="10" height="78" as="geometry" />
        </mxCell>
        <mxCell id="zFKXXjvQPSU-OLs1OLAP-12" style="edgeStyle=orthogonalEdgeStyle;rounded=0;orthogonalLoop=1;jettySize=auto;html=1;curved=0;exitX=1;exitY=0;exitDx=0;exitDy=5;exitPerimeter=0;entryX=0;entryY=0;entryDx=0;entryDy=5;entryPerimeter=0;" edge="1" parent="1" source="zFKXXjvQPSU-OLs1OLAP-4" target="zFKXXjvQPSU-OLs1OLAP-9">
          <mxGeometry relative="1" as="geometry" />
        </mxCell>
        <mxCell id="zFKXXjvQPSU-OLs1OLAP-13" value="insere o cartão" style="text;html=1;align=center;verticalAlign=middle;resizable=0;points=[];autosize=1;strokeColor=none;fillColor=none;" vertex="1" parent="1">
          <mxGeometry x="110" y="140" width="100" height="30" as="geometry" />
        </mxCell>
        <mxCell id="zFKXXjvQPSU-OLs1OLAP-22" style="edgeStyle=orthogonalEdgeStyle;rounded=0;orthogonalLoop=1;jettySize=auto;html=1;curved=0;exitX=1;exitY=0;exitDx=0;exitDy=5;exitPerimeter=0;entryX=0;entryY=0;entryDx=0;entryDy=5;entryPerimeter=0;" edge="1" parent="1" source="zFKXXjvQPSU-OLs1OLAP-9" target="zFKXXjvQPSU-OLs1OLAP-10">
          <mxGeometry relative="1" as="geometry" />
        </mxCell>
        <mxCell id="zFKXXjvQPSU-OLs1OLAP-23" value="valida o cartão" style="text;html=1;align=center;verticalAlign=middle;resizable=0;points=[];autosize=1;strokeColor=none;fillColor=none;" vertex="1" parent="1">
          <mxGeometry x="240" y="140" width="100" height="30" as="geometry" />
        </mxCell>
        <mxCell id="zFKXXjvQPSU-OLs1OLAP-24" style="edgeStyle=orthogonalEdgeStyle;rounded=0;orthogonalLoop=1;jettySize=auto;html=1;curved=0;exitX=1;exitY=0;exitDx=0;exitDy=5;exitPerimeter=0;entryX=0;entryY=0;entryDx=0;entryDy=5;entryPerimeter=0;" edge="1" parent="1" source="zFKXXjvQPSU-OLs1OLAP-10" target="zFKXXjvQPSU-OLs1OLAP-11">
          <mxGeometry relative="1" as="geometry" />
        </mxCell>
        <mxCell id="zFKXXjvQPSU-OLs1OLAP-25" value="validaCartao()" style="text;html=1;align=center;verticalAlign=middle;resizable=0;points=[];autosize=1;strokeColor=none;fillColor=none;" vertex="1" parent="1">
          <mxGeometry x="380" y="140" width="100" height="30" as="geometry" />
        </mxCell>
        <mxCell id="zFKXXjvQPSU-OLs1OLAP-26" style="edgeStyle=orthogonalEdgeStyle;rounded=0;orthogonalLoop=1;jettySize=auto;html=1;curved=0;exitX=0;exitY=1;exitDx=0;exitDy=-5;exitPerimeter=0;entryX=1;entryY=1;entryDx=0;entryDy=-5;entryPerimeter=0;dashed=1;dashPattern=12 12;" edge="1" parent="1" source="zFKXXjvQPSU-OLs1OLAP-11" target="zFKXXjvQPSU-OLs1OLAP-10">
          <mxGeometry relative="1" as="geometry" />
        </mxCell>
        <mxCell id="zFKXXjvQPSU-OLs1OLAP-27" value="true:bool" style="text;html=1;align=center;verticalAlign=middle;resizable=0;points=[];autosize=1;strokeColor=none;fillColor=none;" vertex="1" parent="1">
          <mxGeometry x="390" y="210" width="70" height="30" as="geometry" />
        </mxCell>
        <mxCell id="zFKXXjvQPSU-OLs1OLAP-28" style="edgeStyle=orthogonalEdgeStyle;rounded=0;orthogonalLoop=1;jettySize=auto;html=1;curved=0;exitX=0;exitY=1;exitDx=0;exitDy=-5;exitPerimeter=0;entryX=1;entryY=1;entryDx=0;entryDy=-5;entryPerimeter=0;" edge="1" parent="1" source="zFKXXjvQPSU-OLs1OLAP-10">
          <mxGeometry relative="1" as="geometry">
            <mxPoint x="230" y="235" as="targetPoint" />
          </mxGeometry>
        </mxCell>
        <mxCell id="zFKXXjvQPSU-OLs1OLAP-29" value="mostra opções" style="text;html=1;align=center;verticalAlign=middle;resizable=0;points=[];autosize=1;strokeColor=none;fillColor=none;" vertex="1" parent="1">
          <mxGeometry x="240" y="210" width="100" height="30" as="geometry" />
        </mxCell>
        <mxCell id="zFKXXjvQPSU-OLs1OLAP-36" value="" style="edgeStyle=orthogonalEdgeStyle;rounded=0;orthogonalLoop=1;jettySize=auto;html=1;curved=0;entryX=0;entryY=0;entryDx=0;entryDy=5;entryPerimeter=0;" edge="1" parent="1" source="zFKXXjvQPSU-OLs1OLAP-4" target="zFKXXjvQPSU-OLs1OLAP-35">
          <mxGeometry relative="1" as="geometry">
            <Array as="points">
              <mxPoint x="130" y="285" />
              <mxPoint x="130" y="285" />
            </Array>
          </mxGeometry>
        </mxCell>
        <mxCell id="zFKXXjvQPSU-OLs1OLAP-37" value="escolhe opção&amp;nbsp;&lt;div&gt;pagamento&lt;/div&gt;" style="text;html=1;align=center;verticalAlign=middle;resizable=0;points=[];autosize=1;strokeColor=none;fillColor=none;" vertex="1" parent="1">
          <mxGeometry x="110" y="250" width="100" height="40" as="geometry" />
        </mxCell>
        <mxCell id="zFKXXjvQPSU-OLs1OLAP-40" style="edgeStyle=orthogonalEdgeStyle;rounded=0;orthogonalLoop=1;jettySize=auto;html=1;curved=0;exitX=1;exitY=0;exitDx=0;exitDy=5;exitPerimeter=0;entryX=0;entryY=0;entryDx=0;entryDy=5;entryPerimeter=0;" edge="1" parent="1" source="zFKXXjvQPSU-OLs1OLAP-35" target="zFKXXjvQPSU-OLs1OLAP-39">
          <mxGeometry relative="1" as="geometry" />
        </mxCell>
        <mxCell id="zFKXXjvQPSU-OLs1OLAP-41" value="Sistema&lt;div&gt;opção&lt;/div&gt;" style="shape=umlLifeline;perimeter=lifelinePerimeter;whiteSpace=wrap;html=1;container=1;dropTarget=0;collapsible=0;recursiveResize=0;outlineConnect=0;portConstraint=eastwest;newEdgeStyle={&quot;curved&quot;:0,&quot;rounded&quot;:0};" vertex="1" parent="1">
          <mxGeometry x="620" y="50" width="100" height="620" as="geometry" />
        </mxCell>
        <mxCell id="zFKXXjvQPSU-OLs1OLAP-43" value="" style="html=1;points=[[0,0,0,0,5],[0,1,0,0,-5],[1,0,0,0,5],[1,1,0,0,-5]];perimeter=orthogonalPerimeter;outlineConnect=0;targetShapes=umlLifeline;portConstraint=eastwest;newEdgeStyle={&quot;curved&quot;:0,&quot;rounded&quot;:0};" vertex="1" parent="zFKXXjvQPSU-OLs1OLAP-41">
          <mxGeometry x="45" y="230" width="10" height="78" as="geometry" />
        </mxCell>
        <mxCell id="zFKXXjvQPSU-OLs1OLAP-59" value="" style="html=1;points=[[0,0,0,0,5],[0,1,0,0,-5],[1,0,0,0,5],[1,1,0,0,-5]];perimeter=orthogonalPerimeter;outlineConnect=0;targetShapes=umlLifeline;portConstraint=eastwest;newEdgeStyle={&quot;curved&quot;:0,&quot;rounded&quot;:0};" vertex="1" parent="zFKXXjvQPSU-OLs1OLAP-41">
          <mxGeometry x="45" y="340" width="10" height="78" as="geometry" />
        </mxCell>
        <mxCell id="zFKXXjvQPSU-OLs1OLAP-83" value="" style="html=1;points=[[0,0,0,0,5],[0,1,0,0,-5],[1,0,0,0,5],[1,1,0,0,-5]];perimeter=orthogonalPerimeter;outlineConnect=0;targetShapes=umlLifeline;portConstraint=eastwest;newEdgeStyle={&quot;curved&quot;:0,&quot;rounded&quot;:0};" vertex="1" parent="zFKXXjvQPSU-OLs1OLAP-41">
          <mxGeometry x="45" y="510" width="10" height="78" as="geometry" />
        </mxCell>
        <mxCell id="zFKXXjvQPSU-OLs1OLAP-42" value="valida forma&lt;div&gt;&amp;nbsp;pagamento&lt;/div&gt;" style="text;html=1;align=center;verticalAlign=middle;resizable=0;points=[];autosize=1;strokeColor=none;fillColor=none;" vertex="1" parent="1">
          <mxGeometry x="240" y="263" width="90" height="40" as="geometry" />
        </mxCell>
        <mxCell id="zFKXXjvQPSU-OLs1OLAP-44" style="edgeStyle=orthogonalEdgeStyle;rounded=0;orthogonalLoop=1;jettySize=auto;html=1;curved=0;exitX=1;exitY=0;exitDx=0;exitDy=5;exitPerimeter=0;entryX=0;entryY=0;entryDx=0;entryDy=5;entryPerimeter=0;" edge="1" parent="1" source="zFKXXjvQPSU-OLs1OLAP-39" target="zFKXXjvQPSU-OLs1OLAP-43">
          <mxGeometry relative="1" as="geometry" />
        </mxCell>
        <mxCell id="zFKXXjvQPSU-OLs1OLAP-45" value="validaFormaPagemento()" style="text;html=1;align=center;verticalAlign=middle;resizable=0;points=[];autosize=1;fillColor=#f5f5f5;strokeColor=#666666;fontColor=#333333;" vertex="1" parent="1">
          <mxGeometry x="420" y="260" width="160" height="30" as="geometry" />
        </mxCell>
        <mxCell id="zFKXXjvQPSU-OLs1OLAP-49" style="edgeStyle=orthogonalEdgeStyle;rounded=0;orthogonalLoop=1;jettySize=auto;html=1;curved=0;exitX=0;exitY=1;exitDx=0;exitDy=-5;exitPerimeter=0;entryX=1;entryY=1;entryDx=0;entryDy=-5;entryPerimeter=0;dashed=1;dashPattern=12 12;" edge="1" parent="1" source="zFKXXjvQPSU-OLs1OLAP-43" target="zFKXXjvQPSU-OLs1OLAP-39">
          <mxGeometry relative="1" as="geometry" />
        </mxCell>
        <mxCell id="zFKXXjvQPSU-OLs1OLAP-50" value="true:bool" style="text;html=1;align=center;verticalAlign=middle;resizable=0;points=[];autosize=1;strokeColor=#666666;fillColor=#f5f5f5;fontColor=#333333;" vertex="1" parent="1">
          <mxGeometry x="465" y="328" width="70" height="30" as="geometry" />
        </mxCell>
        <mxCell id="zFKXXjvQPSU-OLs1OLAP-51" style="edgeStyle=orthogonalEdgeStyle;rounded=0;orthogonalLoop=1;jettySize=auto;html=1;curved=0;exitX=0;exitY=1;exitDx=0;exitDy=-5;exitPerimeter=0;entryX=1;entryY=1;entryDx=0;entryDy=-5;entryPerimeter=0;" edge="1" parent="1" source="zFKXXjvQPSU-OLs1OLAP-39" target="zFKXXjvQPSU-OLs1OLAP-35">
          <mxGeometry relative="1" as="geometry" />
        </mxCell>
        <mxCell id="zFKXXjvQPSU-OLs1OLAP-52" value="mostra opções&lt;div&gt;combustíveis&lt;/div&gt;" style="text;html=1;align=center;verticalAlign=middle;resizable=0;points=[];autosize=1;strokeColor=none;fillColor=none;" vertex="1" parent="1">
          <mxGeometry x="240" y="330" width="100" height="40" as="geometry" />
        </mxCell>
        <mxCell id="zFKXXjvQPSU-OLs1OLAP-54" value="" style="edgeStyle=orthogonalEdgeStyle;rounded=0;orthogonalLoop=1;jettySize=auto;html=1;curved=0;entryX=0;entryY=0;entryDx=0;entryDy=5;entryPerimeter=0;" edge="1" parent="1" source="zFKXXjvQPSU-OLs1OLAP-4" target="zFKXXjvQPSU-OLs1OLAP-53">
          <mxGeometry relative="1" as="geometry">
            <Array as="points">
              <mxPoint x="140" y="405" />
              <mxPoint x="140" y="405" />
            </Array>
          </mxGeometry>
        </mxCell>
        <mxCell id="zFKXXjvQPSU-OLs1OLAP-55" value="seleciona&amp;nbsp;&lt;div&gt;combustível&lt;/div&gt;" style="text;html=1;align=center;verticalAlign=middle;resizable=0;points=[];autosize=1;strokeColor=none;fillColor=none;" vertex="1" parent="1">
          <mxGeometry x="115" y="383" width="90" height="40" as="geometry" />
        </mxCell>
        <mxCell id="zFKXXjvQPSU-OLs1OLAP-57" style="edgeStyle=orthogonalEdgeStyle;rounded=0;orthogonalLoop=1;jettySize=auto;html=1;curved=0;exitX=1;exitY=1;exitDx=0;exitDy=-5;exitPerimeter=0;entryX=0;entryY=0;entryDx=0;entryDy=5;entryPerimeter=0;" edge="1" parent="1" source="zFKXXjvQPSU-OLs1OLAP-53" target="zFKXXjvQPSU-OLs1OLAP-56">
          <mxGeometry relative="1" as="geometry">
            <Array as="points">
              <mxPoint x="230" y="405" />
            </Array>
          </mxGeometry>
        </mxCell>
        <mxCell id="zFKXXjvQPSU-OLs1OLAP-58" value="valida tipo&lt;div&gt;de combustível&lt;/div&gt;" style="text;html=1;align=center;verticalAlign=middle;resizable=0;points=[];autosize=1;strokeColor=none;fillColor=none;" vertex="1" parent="1">
          <mxGeometry x="240" y="383" width="100" height="40" as="geometry" />
        </mxCell>
        <mxCell id="zFKXXjvQPSU-OLs1OLAP-60" style="edgeStyle=orthogonalEdgeStyle;rounded=0;orthogonalLoop=1;jettySize=auto;html=1;curved=0;exitX=1;exitY=0;exitDx=0;exitDy=5;exitPerimeter=0;" edge="1" parent="1" source="zFKXXjvQPSU-OLs1OLAP-56" target="zFKXXjvQPSU-OLs1OLAP-59">
          <mxGeometry relative="1" as="geometry">
            <Array as="points">
              <mxPoint x="590" y="405" />
              <mxPoint x="590" y="405" />
            </Array>
          </mxGeometry>
        </mxCell>
        <mxCell id="zFKXXjvQPSU-OLs1OLAP-61" value="validaTipoCombustível()" style="text;html=1;align=center;verticalAlign=middle;resizable=0;points=[];autosize=1;strokeColor=#666666;fillColor=#f5f5f5;fontColor=#333333;" vertex="1" parent="1">
          <mxGeometry x="425" y="383" width="150" height="30" as="geometry" />
        </mxCell>
        <mxCell id="zFKXXjvQPSU-OLs1OLAP-63" style="edgeStyle=orthogonalEdgeStyle;rounded=0;orthogonalLoop=1;jettySize=auto;html=1;curved=0;exitX=0;exitY=1;exitDx=0;exitDy=-5;exitPerimeter=0;dashed=1;dashPattern=12 12;" edge="1" parent="1" source="zFKXXjvQPSU-OLs1OLAP-59" target="zFKXXjvQPSU-OLs1OLAP-56">
          <mxGeometry relative="1" as="geometry">
            <Array as="points">
              <mxPoint x="440" y="463" />
              <mxPoint x="440" y="463" />
            </Array>
          </mxGeometry>
        </mxCell>
        <mxCell id="zFKXXjvQPSU-OLs1OLAP-64" value="true:bool" style="text;html=1;align=center;verticalAlign=middle;resizable=0;points=[];autosize=1;strokeColor=#666666;fillColor=#f5f5f5;fontColor=#333333;" vertex="1" parent="1">
          <mxGeometry x="465" y="438" width="70" height="30" as="geometry" />
        </mxCell>
        <mxCell id="zFKXXjvQPSU-OLs1OLAP-70" value="solicita quantidade&lt;div&gt;de combustível&lt;/div&gt;" style="text;html=1;align=center;verticalAlign=middle;resizable=0;points=[];autosize=1;strokeColor=none;fillColor=none;" vertex="1" parent="1">
          <mxGeometry x="225" y="450" width="120" height="40" as="geometry" />
        </mxCell>
        <mxCell id="zFKXXjvQPSU-OLs1OLAP-72" value="" style="edgeStyle=orthogonalEdgeStyle;rounded=0;orthogonalLoop=1;jettySize=auto;html=1;curved=0;entryX=0;entryY=0;entryDx=0;entryDy=5;entryPerimeter=0;" edge="1" parent="1" source="zFKXXjvQPSU-OLs1OLAP-4" target="zFKXXjvQPSU-OLs1OLAP-71">
          <mxGeometry relative="1" as="geometry">
            <Array as="points">
              <mxPoint x="130" y="565" />
              <mxPoint x="130" y="565" />
            </Array>
          </mxGeometry>
        </mxCell>
        <mxCell id="zFKXXjvQPSU-OLs1OLAP-73" value="informa quantidade&lt;div&gt;de combusível&lt;/div&gt;" style="text;html=1;align=center;verticalAlign=middle;resizable=0;points=[];autosize=1;strokeColor=none;fillColor=none;" vertex="1" parent="1">
          <mxGeometry x="95" y="545" width="130" height="40" as="geometry" />
        </mxCell>
        <mxCell id="zFKXXjvQPSU-OLs1OLAP-77" value="&lt;font style=&quot;font-size: 10px;&quot;&gt;valida quantidade&lt;/font&gt;&lt;div&gt;&lt;font style=&quot;font-size: 10px;&quot;&gt;de combustível&lt;/font&gt;&lt;/div&gt;" style="text;html=1;align=center;verticalAlign=middle;resizable=0;points=[];autosize=1;strokeColor=none;fillColor=none;" vertex="1" parent="1">
          <mxGeometry x="240" y="545" width="100" height="40" as="geometry" />
        </mxCell>
        <mxCell id="zFKXXjvQPSU-OLs1OLAP-79" value="" style="edgeStyle=orthogonalEdgeStyle;rounded=0;orthogonalLoop=1;jettySize=auto;html=1;curved=0;" edge="1" parent="1" source="zFKXXjvQPSU-OLs1OLAP-71" target="zFKXXjvQPSU-OLs1OLAP-74">
          <mxGeometry relative="1" as="geometry">
            <Array as="points">
              <mxPoint x="320" y="570" />
              <mxPoint x="320" y="570" />
            </Array>
          </mxGeometry>
        </mxCell>
        <mxCell id="zFKXXjvQPSU-OLs1OLAP-84" value="" style="edgeStyle=orthogonalEdgeStyle;rounded=0;orthogonalLoop=1;jettySize=auto;html=1;curved=0;" edge="1" parent="1" source="zFKXXjvQPSU-OLs1OLAP-74" target="zFKXXjvQPSU-OLs1OLAP-83">
          <mxGeometry relative="1" as="geometry">
            <Array as="points">
              <mxPoint x="590" y="570" />
              <mxPoint x="590" y="570" />
            </Array>
          </mxGeometry>
        </mxCell>
        <mxCell id="zFKXXjvQPSU-OLs1OLAP-85" value="validaQuantidadeCombustivel()" style="text;html=1;align=center;verticalAlign=middle;resizable=0;points=[];autosize=1;strokeColor=#666666;fillColor=#f5f5f5;fontColor=#333333;" vertex="1" parent="1">
          <mxGeometry x="414" y="545" width="190" height="30" as="geometry" />
        </mxCell>
        <mxCell id="zFKXXjvQPSU-OLs1OLAP-86" style="edgeStyle=orthogonalEdgeStyle;rounded=0;orthogonalLoop=1;jettySize=auto;html=1;curved=0;exitX=0;exitY=1;exitDx=0;exitDy=-5;exitPerimeter=0;entryX=1;entryY=1;entryDx=0;entryDy=-5;entryPerimeter=0;dashed=1;dashPattern=12 12;" edge="1" parent="1" source="zFKXXjvQPSU-OLs1OLAP-83" target="zFKXXjvQPSU-OLs1OLAP-74">
          <mxGeometry relative="1" as="geometry" />
        </mxCell>
        <mxCell id="zFKXXjvQPSU-OLs1OLAP-87" value="true:bool" style="text;html=1;align=center;verticalAlign=middle;resizable=0;points=[];autosize=1;strokeColor=#666666;fillColor=#f5f5f5;fontColor=#333333;" vertex="1" parent="1">
          <mxGeometry x="465" y="608" width="70" height="30" as="geometry" />
        </mxCell>
        <mxCell id="zFKXXjvQPSU-OLs1OLAP-88" style="edgeStyle=orthogonalEdgeStyle;rounded=0;orthogonalLoop=1;jettySize=auto;html=1;curved=0;exitX=0;exitY=1;exitDx=0;exitDy=-5;exitPerimeter=0;entryX=1;entryY=1;entryDx=0;entryDy=-5;entryPerimeter=0;" edge="1" parent="1" source="zFKXXjvQPSU-OLs1OLAP-74" target="zFKXXjvQPSU-OLs1OLAP-71">
          <mxGeometry relative="1" as="geometry" />
        </mxCell>
        <mxCell id="zFKXXjvQPSU-OLs1OLAP-89" value="solicita senha" style="text;html=1;align=center;verticalAlign=middle;resizable=0;points=[];autosize=1;strokeColor=none;fillColor=none;" vertex="1" parent="1">
          <mxGeometry x="240" y="608" width="100" height="30" as="geometry" />
        </mxCell>
        <mxCell id="zFKXXjvQPSU-OLs1OLAP-91" style="edgeStyle=orthogonalEdgeStyle;rounded=0;orthogonalLoop=1;jettySize=auto;html=1;curved=0;exitX=1;exitY=1;exitDx=0;exitDy=-5;exitPerimeter=0;entryX=0;entryY=0;entryDx=0;entryDy=5;entryPerimeter=0;" edge="1" parent="1" source="zFKXXjvQPSU-OLs1OLAP-4" target="zFKXXjvQPSU-OLs1OLAP-90">
          <mxGeometry relative="1" as="geometry">
            <Array as="points">
              <mxPoint x="105" y="685" />
            </Array>
          </mxGeometry>
        </mxCell>
        <mxCell id="zFKXXjvQPSU-OLs1OLAP-92" value="insere a senha" style="text;html=1;align=center;verticalAlign=middle;resizable=0;points=[];autosize=1;strokeColor=none;fillColor=none;" vertex="1" parent="1">
          <mxGeometry x="110" y="660" width="100" height="30" as="geometry" />
        </mxCell>
        <mxCell id="zFKXXjvQPSU-OLs1OLAP-94" style="edgeStyle=orthogonalEdgeStyle;rounded=0;orthogonalLoop=1;jettySize=auto;html=1;curved=0;exitX=1;exitY=0;exitDx=0;exitDy=5;exitPerimeter=0;entryX=0;entryY=0;entryDx=0;entryDy=5;entryPerimeter=0;" edge="1" parent="1" source="zFKXXjvQPSU-OLs1OLAP-90" target="zFKXXjvQPSU-OLs1OLAP-93">
          <mxGeometry relative="1" as="geometry" />
        </mxCell>
        <mxCell id="zFKXXjvQPSU-OLs1OLAP-95" value="valida a senha" style="text;html=1;align=center;verticalAlign=middle;resizable=0;points=[];autosize=1;strokeColor=none;fillColor=none;" vertex="1" parent="1">
          <mxGeometry x="240" y="660" width="100" height="30" as="geometry" />
        </mxCell>
        <mxCell id="zFKXXjvQPSU-OLs1OLAP-97" style="edgeStyle=orthogonalEdgeStyle;rounded=0;orthogonalLoop=1;jettySize=auto;html=1;curved=0;exitX=1;exitY=0;exitDx=0;exitDy=5;exitPerimeter=0;entryX=0;entryY=0;entryDx=0;entryDy=5;entryPerimeter=0;" edge="1" parent="1" source="zFKXXjvQPSU-OLs1OLAP-93" target="zFKXXjvQPSU-OLs1OLAP-96">
          <mxGeometry relative="1" as="geometry" />
        </mxCell>
        <mxCell id="zFKXXjvQPSU-OLs1OLAP-98" value="validaSenha()" style="text;html=1;align=center;verticalAlign=middle;resizable=0;points=[];autosize=1;strokeColor=none;fillColor=none;" vertex="1" parent="1">
          <mxGeometry x="375" y="660" width="100" height="30" as="geometry" />
        </mxCell>
        <mxCell id="zFKXXjvQPSU-OLs1OLAP-99" style="edgeStyle=orthogonalEdgeStyle;rounded=0;orthogonalLoop=1;jettySize=auto;html=1;curved=0;exitX=0;exitY=1;exitDx=0;exitDy=-5;exitPerimeter=0;entryX=1;entryY=1;entryDx=0;entryDy=-5;entryPerimeter=0;dashed=1;dashPattern=8 8;" edge="1" parent="1" source="zFKXXjvQPSU-OLs1OLAP-96" target="zFKXXjvQPSU-OLs1OLAP-93">
          <mxGeometry relative="1" as="geometry" />
        </mxCell>
        <mxCell id="zFKXXjvQPSU-OLs1OLAP-100" value="true:bool" style="text;html=1;align=center;verticalAlign=middle;resizable=0;points=[];autosize=1;strokeColor=none;fillColor=none;" vertex="1" parent="1">
          <mxGeometry x="390" y="728" width="70" height="30" as="geometry" />
        </mxCell>
        <mxCell id="zFKXXjvQPSU-OLs1OLAP-101" style="edgeStyle=orthogonalEdgeStyle;rounded=0;orthogonalLoop=1;jettySize=auto;html=1;curved=0;exitX=0;exitY=1;exitDx=0;exitDy=-5;exitPerimeter=0;entryX=1;entryY=1;entryDx=0;entryDy=-5;entryPerimeter=0;" edge="1" parent="1" source="zFKXXjvQPSU-OLs1OLAP-93" target="zFKXXjvQPSU-OLs1OLAP-90">
          <mxGeometry relative="1" as="geometry" />
        </mxCell>
        <mxCell id="zFKXXjvQPSU-OLs1OLAP-102" value="efetua pagamento" style="text;html=1;align=center;verticalAlign=middle;resizable=0;points=[];autosize=1;strokeColor=none;fillColor=none;" vertex="1" parent="1">
          <mxGeometry x="230" y="728" width="120" height="30" as="geometry" />
        </mxCell>
        <mxCell id="zFKXXjvQPSU-OLs1OLAP-106" style="edgeStyle=orthogonalEdgeStyle;rounded=0;orthogonalLoop=1;jettySize=auto;html=1;curved=0;exitX=1;exitY=0;exitDx=0;exitDy=5;exitPerimeter=0;entryX=0;entryY=0;entryDx=0;entryDy=5;entryPerimeter=0;" edge="1" parent="1" source="zFKXXjvQPSU-OLs1OLAP-103" target="zFKXXjvQPSU-OLs1OLAP-105">
          <mxGeometry relative="1" as="geometry" />
        </mxCell>
        <mxCell id="zFKXXjvQPSU-OLs1OLAP-107" value="validaSaldo" style="text;html=1;align=center;verticalAlign=middle;resizable=0;points=[];autosize=1;strokeColor=none;fillColor=none;" vertex="1" parent="1">
          <mxGeometry x="245" y="810" width="90" height="30" as="geometry" />
        </mxCell>
        <mxCell id="zFKXXjvQPSU-OLs1OLAP-110" style="edgeStyle=orthogonalEdgeStyle;rounded=0;orthogonalLoop=1;jettySize=auto;html=1;curved=0;exitX=1;exitY=0;exitDx=0;exitDy=5;exitPerimeter=0;entryX=0;entryY=0;entryDx=0;entryDy=5;entryPerimeter=0;" edge="1" parent="1" source="zFKXXjvQPSU-OLs1OLAP-105" target="zFKXXjvQPSU-OLs1OLAP-109">
          <mxGeometry relative="1" as="geometry" />
        </mxCell>
        <mxCell id="zFKXXjvQPSU-OLs1OLAP-111" value="validaSaldo()" style="text;html=1;align=center;verticalAlign=middle;resizable=0;points=[];autosize=1;strokeColor=none;fillColor=none;" vertex="1" parent="1">
          <mxGeometry x="385" y="810" width="90" height="30" as="geometry" />
        </mxCell>
        <mxCell id="zFKXXjvQPSU-OLs1OLAP-113" style="edgeStyle=orthogonalEdgeStyle;rounded=0;orthogonalLoop=1;jettySize=auto;html=1;curved=0;exitX=0;exitY=1;exitDx=0;exitDy=-5;exitPerimeter=0;entryX=1;entryY=1;entryDx=0;entryDy=-5;entryPerimeter=0;dashed=1;dashPattern=12 12;" edge="1" parent="1" source="zFKXXjvQPSU-OLs1OLAP-109" target="zFKXXjvQPSU-OLs1OLAP-105">
          <mxGeometry relative="1" as="geometry" />
        </mxCell>
        <mxCell id="zFKXXjvQPSU-OLs1OLAP-114" value="true:bool" style="text;html=1;align=center;verticalAlign=middle;resizable=0;points=[];autosize=1;strokeColor=none;fillColor=none;" vertex="1" parent="1">
          <mxGeometry x="395" y="878" width="70" height="30" as="geometry" />
        </mxCell>
        <mxCell id="zFKXXjvQPSU-OLs1OLAP-116" style="edgeStyle=orthogonalEdgeStyle;rounded=0;orthogonalLoop=1;jettySize=auto;html=1;curved=0;exitX=0;exitY=1;exitDx=0;exitDy=-5;exitPerimeter=0;entryX=1;entryY=1;entryDx=0;entryDy=-5;entryPerimeter=0;" edge="1" parent="1" source="zFKXXjvQPSU-OLs1OLAP-105" target="zFKXXjvQPSU-OLs1OLAP-103">
          <mxGeometry relative="1" as="geometry" />
        </mxCell>
        <mxCell id="zFKXXjvQPSU-OLs1OLAP-117" value="liberaCombustível" style="text;html=1;align=center;verticalAlign=middle;resizable=0;points=[];autosize=1;strokeColor=none;fillColor=none;" vertex="1" parent="1">
          <mxGeometry x="230" y="878" width="120" height="30" as="geometry" />
        </mxCell>
      </root>
    </mxGraphModel>
  </diagram>
</mxfile>
